<svg width="30" height="30" viewBox="0 0 30 30" fill="none" xmlns="http://www.w3.org/2000/svg">
<path d="M30 15.3409C30 14.2773 29.9026 13.2545 29.7217 12.2727H15.3061V18.0818H23.5436C23.1818 19.95 22.0965 21.5318 20.4685 22.5955V26.3727H25.436C28.3302 23.7545 30 19.9091 30 15.3409Z" fill="#4285F4"/>
<path d="M15.3061 30C19.4388 30 22.9035 28.6636 25.436 26.3727L20.4685 22.5955C19.1048 23.4955 17.3655 24.0409 15.3061 24.0409C11.3265 24.0409 7.94527 21.4091 6.73469 17.8636H1.64193V21.7364C4.16048 26.6318 9.32282 30 15.3061 30Z" fill="#34A853"/>
<path d="M6.73469 17.85C6.42857 16.95 6.24768 15.9955 6.24768 15C6.24768 14.0045 6.42857 13.05 6.73469 12.15V8.27727H1.64193C0.59833 10.2955 0 12.5727 0 15C0 17.4273 0.59833 19.7045 1.64193 21.7227L5.60761 18.6955L6.73469 17.85Z" fill="#FBBC05"/>
<path d="M15.3061 5.97273C17.5603 5.97273 19.564 6.73636 21.1642 8.20909L25.5473 3.91364C22.8896 1.48636 19.4388 0 15.3061 0C9.32282 0 4.16048 3.36818 1.64193 8.27727L6.73469 12.15C7.94527 8.60455 11.3265 5.97273 15.3061 5.97273Z" fill="#EA4335"/>
</svg>
