<svg width="369" height="367" viewBox="0 0 369 367" fill="none" xmlns="http://www.w3.org/2000/svg">
<path d="M183.473 366.583L0.446045 327.112V41.8848L92.0199 61.1977L42.3671 72.3026V294.522L278.188 345.822L183.473 366.583Z" fill="#231815"/>
<path d="M185.527 0L368.554 39.5915V324.698L276.98 305.385L326.633 294.28V72.182L90.8118 20.7614L185.527 0Z" fill="#231815"/>
<path d="M278.188 99.5822L141.552 168.264L95.4026 145.571L232.28 77.0103L278.188 99.5822Z" fill="#231815"/>
<path d="M95.4026 145.571V191.198L141.552 214.494V168.264L95.4026 145.571Z" fill="#231815"/>
<path d="M278.188 145.571L186.856 190.836V145.571L278.188 99.582V145.571Z" fill="url(#paint0_linear_438_500)"/>
<path d="M186.856 190.835V282.451L141.552 260V214.494L186.856 190.835Z" fill="url(#paint1_linear_438_500)"/>
<path d="M232.522 214.494V260L186.856 282.451V236.221L232.522 214.494Z" fill="#231815"/>
<defs>
<linearGradient id="paint0_linear_438_500" x1="174.533" y1="172.247" x2="284.557" y2="120.874" gradientUnits="userSpaceOnUse">
<stop offset="0.04" stop-color="#898989"/>
<stop offset="0.66" stop-color="#040000"/>
</linearGradient>
<linearGradient id="paint1_linear_438_500" x1="164.264" y1="282.451" x2="164.264" y2="190.835" gradientUnits="userSpaceOnUse">
<stop offset="0.24" stop-color="#040000"/>
<stop offset="0.31" stop-color="#080404"/>
<stop offset="0.39" stop-color="#161212"/>
<stop offset="0.48" stop-color="#2D2A2A"/>
<stop offset="0.57" stop-color="#4C4A4A"/>
<stop offset="0.66" stop-color="#747474"/>
<stop offset="0.71" stop-color="#898989"/>
</linearGradient>
</defs>
</svg>
